<?xml version="1.0" standalone="no"?><!DOCTYPE svg PUBLIC "-//W3C//DTD SVG 1.1//EN" "http://www.w3.org/Graphics/SVG/1.1/DTD/svg11.dtd"><svg t="1753843769963" class="icon" viewBox="0 0 1498 1024" version="1.1" xmlns="http://www.w3.org/2000/svg" p-id="8889" xmlns:xlink="http://www.w3.org/1999/xlink" width="292.578125" height="200"><path d="M449.165283 0H213.246792V235.916981c0 130.083019 105.829434 235.916981 235.910944 235.916981 130.089057 0 235.918491-105.833962 235.91849-235.916981C685.076226 105.833962 579.246792 0 449.165283 0z m0 420.327547c-101.686038 0-184.410566-82.730566-184.410566-184.410566V51.501887h184.410566c101.678491 0 184.409057 82.729057 184.409057 184.415094 0 101.68-82.730566 184.410566-184.409057 184.410566zM1237.25434 0H1001.335849C871.246792 0 765.418868 105.833962 765.418868 235.916981c0 130.083019 105.827925 235.916981 235.916981 235.916981 130.084528 0 235.918491-105.833962 235.918491-235.916981V0zM1185.747925 235.916981c0 101.68-82.732075 184.410566-184.412076 184.410566-101.684528 0-184.415094-82.730566-184.415094-184.410566 0-101.686038 82.730566-184.415094 184.415094-184.415094h184.412076V235.916981zM996.389434 1024h235.918491V788.087547c0-130.089057-105.835472-235.923019-235.918491-235.923019-130.089057 0-235.916981 105.833962-235.916981 235.916981 0 130.084528 105.829434 235.918491 235.916981 235.918491z m0-420.327547c101.68 0 184.410566 82.732075 184.410566 184.410566v184.409056H996.389434c-101.684528 0-184.409057-82.729057-184.409057-184.409056 0.001509-101.68 82.724528-184.410566 184.409057-184.410566z m-552.170566-51.512453c-130.083019 0-235.916981 105.833962-235.916981 235.916981v235.916981h235.916981c130.083019 0 235.916981-105.832453 235.916981-235.916981 0-130.083019-105.833962-235.916981-235.916981-235.916981z m0 420.330566H259.808302V788.081509c0-101.678491 82.724528-184.410566 184.410566-184.410566 101.68 0 184.409057 82.732075 184.409057 184.410566 0 101.681509-82.723019 184.409057-184.409057 184.409057z" fill="" p-id="8890"></path></svg>