<?xml version="1.0" standalone="no"?><!DOCTYPE svg PUBLIC "-//W3C//DTD SVG 1.1//EN" "http://www.w3.org/Graphics/SVG/1.1/DTD/svg11.dtd"><svg t="1755503314139" class="icon" viewBox="0 0 1024 1024" version="1.1" xmlns="http://www.w3.org/2000/svg" p-id="7621" xmlns:xlink="http://www.w3.org/1999/xlink" width="200" height="200"><path d="M509.648 940.515S392.79 862.23 345.13 810.613C221.187 676.378 135.646 520.794 94.377 342.02c-10.532-45.628-16.331-91.944-15.794-138.936 0.38-33.168 15.605-53.597 47.707-62.917 45.706-13.268 91.413-26.532 137.155-39.677 31.31-8.998 53.956 1.36 66.816 30.584a41374.292 41374.292 0 0 1 58.959 134.68c12.15 27.879 4.32 51.104-22.438 65.586-26.95 14.586-53.871 29.27-81.34 42.828-15.544 7.673-21.881 19.548-22.697 35.966-1.554 31.305 6.666 60.724 16.7 89.828 19.058 55.28 48.934 103.952 89.896 145.667 7.227 7.361 15.499 13.835 23.887 19.888 16.338 11.791 32.786 13.493 51.275 2.653 24.78-14.528 50.668-27.185 76.227-40.362 27.736-14.3 52.22-8.534 70.783 16.737a22864.23 22864.23 0 0 1 89.299 122.392c16.91 23.343 14.028 48.01-8.02 66.53-37.601 31.584-75.712 62.563-113.116 94.376-8.26 7.025-27.349 12.67-27.349 12.67s-5.31 1.817-11.139 2.403c-6.793 0.686-11.54-2.401-11.54-2.401zM964.113 470.886c-25.503 117.208-94.408 200.298-199.46 255.185-13.034 6.81-26.325 8.136-38.355-2.148-17.96-15.355-13.634-39.097 10.048-51.803 20.873-11.2 40.912-23.498 59.13-38.627 170.035-141.206 139.747-396.542-59.534-495.102-98.146-48.542-198.075-48.418-297.755-3.128-27.908 12.68-45.938 9.577-55.805-10.737-8.308-17.104 1.111-31.321 29.51-44.586C450.218 62.037 490.5 50.935 532.322 45.1c2.973-0.414 7.594-1.685 12.087-2.419 10.577-1.728 54.61-2.807 78.214 0.255 18.09 2.346 38.685 5.392 56.133 10.105C823.832 92.237 922.1 179.644 961.497 327.51c4.516 16.95 9.456 53.89 9.455 75.678 0 30.647-4.306 56.059-6.839 67.698z" p-id="7622" fill="#1e50ae"></path><path d="M503.525 504.195c23.408 0 43.23-0.38 63.027 0.14 12.203 0.32 23.97 3.12 27.855 17.094 3.86 13.89-5.202 26.927-20.746 27.21-42.467 0.775-84.959 0.453-127.437 0.098-8.73-0.073-17.173-3.284-20.606-12.392-3.792-10.06-1.72-19.388 5.837-27.433 22.937-24.424 45.993-48.742 68.531-73.531 8.225-9.045 15.156-19.27 22.614-29.005 4.06-5.3 6.923-11.261 8.659-17.676 3.778-13.963-2.323-28.395-14.028-33.641-12.441-5.576-26.222-1.33-34.199 11.685-4.384 7.153-6.963 15.394-10.551 23.055-7.094 15.15-18.298 19.922-33.543 14.458-11.094-3.976-14.885-14.309-12.797-29.367 8.632-62.286 89.526-87.299 138.006-50.033 22.526 17.316 30.11 49.467 18.256 76.686-10.676 24.517-27.41 45.01-44.977 64.83-10.536 11.888-21.2 23.662-33.901 37.822zM779.365 393.477c0.012 16.036 0.18 32.075-0.071 48.107-0.1 6.33 0.479 10.51 8.555 11.247 12.657 1.157 21.916 8.409 21.851 21.584-0.063 13.023-8.722 20.575-21.833 21.357-6.828 0.408-9.015 3.213-8.567 9.653 0.39 5.633 0.146 11.315 0.06 16.974-0.286 18.8-8.41 26.85-26.722 26.563-17.722-0.279-24.613-7.74-24.646-26.689-0.045-26.114-0.045-26.112-26.834-26.115-19.809-0.002-39.62-0.044-59.428-0.003-9.332 0.02-18.472-1.1-22.942-10.572-4.103-8.697-1.95-16.655 3.206-25.176 26.332-43.516 51.879-87.507 77.79-131.278 11.992-20.256 28.748-26.77 51.592-20.36 18.127 5.085 27.568 18.676 27.934 40.845 0.24 14.618 0.044 29.242 0.055 43.863z m-100.406 58.84c15.271 0 27.547 0.057 39.822-0.031 4.043-0.029 9.106 1.134 9.112-5.56 0.026-28.354 0.011-56.71 0.011-85.064l-2.635-0.256-46.31 90.912z" p-id="7623" fill="#1e50ae"></path></svg>